<svg xmlns="http://www.w3.org/2000/svg" viewBox="0 0 64 64">
  <defs>
    <linearGradient id="bg" x1="0" y1="0" x2="0" y2="1">
      <stop offset="0%" stop-color="#7c3434" />
      <stop offset="55%" stop-color="#6d2b2b" />
      <stop offset="100%" stop-color="#4a1c1c" />
    </linearGradient>
  </defs>

  <circle cx="32" cy="32" r="30" fill="url(#bg)" stroke="#c9a227" stroke-width="2.5" />

  <!-- Hammer -->
  <g transform="translate(9,9) scale(1.9167)" fill="none" stroke="#f5f2ec" stroke-width="2.3" stroke-linecap="round" stroke-linejoin="round">
    <path d="m15 12-9.373 9.373a1 1 0 0 1-3.001-3L12 9" />
    <path d="m18 15 4-4" />
    <path d="m21.5 11.5-1.914-1.914A2 2 0 0 1 19 8.172v-.344a2 2 0 0 0-.586-1.414l-1.657-1.657A6 6 0 0 0 12.516 3H9l1.243 1.243A6 6 0 0 1 12 8.485V10l2 2h1.172a2 2 0 0 1 1.414.586L18.5 14.5" />
  </g>

  <!-- Blitz (Zap), unten rechts ueberlappend, wie im App-Header -->
  <g transform="translate(33,33) scale(1)" fill="#fde047" stroke="#c9860a" stroke-width="0.75" stroke-linejoin="round">
    <path d="M15.914 4a1.5 1.5 0 00-2.474-1.561l-9 9A1.5 1.5 0 005.5 14h4.002a.5.5 0 01.471.666L8.086 20a1.5 1.5 0 002.475 1.56l9-9A1.5 1.5 0 0018.5 10h-3.997a.5.5 0 01-.472-.667z" />
  </g>
</svg>
